name rise42.5664peak47.7979fall81.9185.mot
datacolumns 19
datarows 18
range 3.89665300000000 3.92498300000000
endheader
time	ground_force1_vx	ground_force1_vy	ground_force1_vz	ground_force1_px	ground_force1_py	ground_force1_pz	ground_force2_vx	ground_force2_vy	ground_force2_vz	ground_force2_px	ground_force2_py	ground_force2_pz	ground_torque1_x	ground_torque1_y	ground_torque1_z	ground_torque2_x	ground_torque2_y	ground_torque2_z	
3.89665300000000	48.13776600000000	748.64947600000005	54.08246900000000	0.25428100000000	0.00000000000000	0.09975300000000	0.00000000000000	0.00000000000000	0.00000000000000	0.00000000000000	0.00000000000000	0.00000000000000	0.00000000000000	16.27135500000000	0.00000000000000	0.00000000000000	0.00000000000000	0.00000000000000	
3.89832000000000	47.53736300000000	751.88324899999998	54.21751400000000	0.25343600000000	0.00000000000000	0.09978800000000	0.00000000000000	0.00000000000000	0.00000000000000	0.00000000000000	0.00000000000000	0.00000000000000	0.00000000000000	16.31625300000000	0.00000000000000	0.00000000000000	0.00000000000000	0.00000000000000	
3.89998300000000	46.94015100000000	755.02354700000001	54.35119200000000	0.25261200000000	0.00000000000000	0.09982100000000	0.00000000000000	0.00000000000000	0.00000000000000	0.00000000000000	0.00000000000000	0.00000000000000	0.00000000000000	16.36153500000000	0.00000000000000	0.00000000000000	0.00000000000000	0.00000000000000	
3.90165100000000	46.34631700000000	758.06693600000006	54.48332100000000	0.25180600000000	0.00000000000000	0.09985400000000	0.00000000000000	0.00000000000000	0.00000000000000	0.00000000000000	0.00000000000000	0.00000000000000	0.00000000000000	16.40703800000000	0.00000000000000	0.00000000000000	0.00000000000000	0.00000000000000	
3.90332100000000	45.75597900000000	761.01002700000004	54.61365400000000	0.25101500000000	0.00000000000000	0.09988600000000	0.00000000000000	0.00000000000000	0.00000000000000	0.00000000000000	0.00000000000000	0.00000000000000	0.00000000000000	16.45257100000000	0.00000000000000	0.00000000000000	0.00000000000000	0.00000000000000	
3.90498500000000	45.16919300000000	763.84950200000003	54.74188300000000	0.25023700000000	0.00000000000000	0.09991700000000	0.00000000000000	0.00000000000000	0.00000000000000	0.00000000000000	0.00000000000000	0.00000000000000	0.00000000000000	16.49791500000000	0.00000000000000	0.00000000000000	0.00000000000000	0.00000000000000	
3.90665500000000	44.58595800000000	766.58212900000001	54.86764500000000	0.24947000000000	0.00000000000000	0.09994800000000	0.00000000000000	0.00000000000000	0.00000000000000	0.00000000000000	0.00000000000000	0.00000000000000	0.00000000000000	16.54282700000000	0.00000000000000	0.00000000000000	0.00000000000000	0.00000000000000	
3.90831900000000	44.00622000000000	769.20478400000002	54.99052500000000	0.24871000000000	0.00000000000000	0.09997900000000	0.00000000000000	0.00000000000000	0.00000000000000	0.00000000000000	0.00000000000000	0.00000000000000	0.00000000000000	16.58704500000000	0.00000000000000	0.00000000000000	0.00000000000000	0.00000000000000	
3.90998400000000	43.42987900000000	771.71446900000001	55.11006500000000	0.24795600000000	0.00000000000000	0.10000900000000	0.00000000000000	0.00000000000000	0.00000000000000	0.00000000000000	0.00000000000000	0.00000000000000	0.00000000000000	16.63028600000000	0.00000000000000	0.00000000000000	0.00000000000000	0.00000000000000	
3.91164700000000	42.85679000000000	774.10833400000001	55.22576500000000	0.24720500000000	0.00000000000000	0.10003900000000	0.00000000000000	0.00000000000000	0.00000000000000	0.00000000000000	0.00000000000000	0.00000000000000	0.00000000000000	16.67225200000000	0.00000000000000	0.00000000000000	0.00000000000000	0.00000000000000	
3.91333200000000	42.28677300000000	776.38368700000001	55.33709200000000	0.24645400000000	0.00000000000000	0.10006900000000	0.00000000000000	0.00000000000000	0.00000000000000	0.00000000000000	0.00000000000000	0.00000000000000	0.00000000000000	16.71263500000000	0.00000000000000	0.00000000000000	0.00000000000000	0.00000000000000	
3.91498900000000	41.71961600000000	778.53801599999997	55.44348700000000	0.24570100000000	0.00000000000000	0.10010000000000	0.00000000000000	0.00000000000000	0.00000000000000	0.00000000000000	0.00000000000000	0.00000000000000	0.00000000000000	16.75111500000000	0.00000000000000	0.00000000000000	0.00000000000000	0.00000000000000	
3.91664900000000	41.15507900000000	780.56900299999995	55.54436600000000	0.24494400000000	0.00000000000000	0.10013000000000	0.00000000000000	0.00000000000000	0.00000000000000	0.00000000000000	0.00000000000000	0.00000000000000	0.00000000000000	16.78736500000000	0.00000000000000	0.00000000000000	0.00000000000000	0.00000000000000	
3.91831400000000	40.59290300000000	782.47453599999994	55.63913200000000	0.24417900000000	0.00000000000000	0.10016100000000	0.00000000000000	0.00000000000000	0.00000000000000	0.00000000000000	0.00000000000000	0.00000000000000	0.00000000000000	16.82105600000000	0.00000000000000	0.00000000000000	0.00000000000000	0.00000000000000	
3.91998800000000	40.03281000000000	784.25272600000005	55.72717800000000	0.24340500000000	0.00000000000000	0.10019300000000	0.00000000000000	0.00000000000000	0.00000000000000	0.00000000000000	0.00000000000000	0.00000000000000	0.00000000000000	16.85186000000000	0.00000000000000	0.00000000000000	0.00000000000000	0.00000000000000	
3.92165400000000	39.47451400000000	785.90191200000004	55.80789400000000	0.24262000000000	0.00000000000000	0.10022500000000	0.00000000000000	0.00000000000000	0.00000000000000	0.00000000000000	0.00000000000000	0.00000000000000	0.00000000000000	16.87944800000000	0.00000000000000	0.00000000000000	0.00000000000000	0.00000000000000	
3.92331400000000	38.91772100000000	787.42068099999995	55.88067000000000	0.24182200000000	0.00000000000000	0.10025700000000	0.00000000000000	0.00000000000000	0.00000000000000	0.00000000000000	0.00000000000000	0.00000000000000	0.00000000000000	16.90350000000000	0.00000000000000	0.00000000000000	0.00000000000000	0.00000000000000	
3.92498300000000	38.36213500000000	788.80786799999998	55.94490900000000	0.24100800000000	0.00000000000000	0.10029000000000	0.00000000000000	0.00000000000000	0.00000000000000	0.00000000000000	0.00000000000000	0.00000000000000	0.00000000000000	16.92370300000000	0.00000000000000	0.00000000000000	0.00000000000000	0.00000000000000	
